<svg width="24" height="25" viewBox="0 0 24 25" fill="none" xmlns="http://www.w3.org/2000/svg">
<path d="M0 14.8334C-5.90507e-05 16.6597 0.363177 18.1318 0.949013 19.3109C3.57618 24.5981 11.4081 25.2143 16.9219 23.1036C18.6578 22.4391 20.1016 21.4352 21.2534 20.194C22.9752 18.3386 23.6941 12.9287 23.9781 10.0079C24.3398 6.28876 20.1335 2.36624 17.4387 0.893416C13.6239 -1.19151 3.26973 0.612574 1.63486 3.82942C0.000251386 7.04577 1.73778e-05 14.295 0 14.8331V14.8334Z" fill="#97B0FF"/>
<path d="M5.01675 8.64637C6.65842 1.42971 17.3501 1.43804 18.9834 8.65471C19.9418 12.888 17.3084 16.4714 15.0001 18.688C13.3251 20.3047 10.6751 20.3047 8.99175 18.688C6.69175 16.4714 4.05842 12.8797 5.01675 8.64637Z" fill="white" stroke="#292D32"/>
<path d="M12.0004 12.763C13.4363 12.763 14.6004 11.5989 14.6004 10.163C14.6004 8.72705 13.4363 7.56299 12.0004 7.56299C10.5645 7.56299 9.40039 8.72705 9.40039 10.163C9.40039 11.5989 10.5645 12.763 12.0004 12.763Z" fill="white" stroke="#292D32"/>
</svg>
