<svg width="540" height="417" viewBox="0 0 540 417" fill="none" xmlns="http://www.w3.org/2000/svg">
<path d="M375 150C383.284 150 390 156.716 390 165C390 173.284 383.284 180 375 180H165C156.716 180 150 173.284 150 165C150 156.716 156.716 150 165 150H375Z" fill="#4568DC"/>
<path d="M165 90C156.716 90 150 83.2843 150 75C150 66.7157 156.716 60 165 60H375C383.284 60 390 66.7157 390 75C390 83.2843 383.284 90 375 90H165Z" fill="#4568DC"/>
<path d="M300 15C300 6.71573 306.716 0 315 0C323.284 0 330 6.71573 330 15V225C330 233.284 323.284 240 315 240C306.716 240 300 233.284 300 225V15Z" fill="#4568DC"/>
<path d="M210 15C210 6.71573 216.715 0 225 0C233.284 0 240 6.71573 240 15V225C240 233.284 233.284 240 225 240C216.715 240 210 233.284 210 225V15Z" fill="#4568DC"/>
<path d="M216.742 177.622C209.843 173.035 207.969 163.724 212.556 156.826C217.143 149.927 226.453 148.053 233.352 152.639L323.336 212.468C330.235 217.055 332.109 226.365 327.522 233.264C322.936 240.162 313.625 242.037 306.726 237.45L216.742 177.622Z" fill="#B06AB3" fill-opacity="0.5"/>
<path d="M330 165C330 173.284 323.284 180 315 180C306.716 180 300 173.284 300 165V75C300 66.7157 306.716 60 315 60C323.284 60 330 66.7157 330 75V165Z" fill="#B06AB3" fill-opacity="0.5"/>
<path d="M240 225C240 233.284 233.284 240 225 240C216.715 240 210 233.284 210 225V75C210 66.7157 216.715 60 225 60C233.284 60 240 66.7157 240 75V225Z" fill="#B06AB3" fill-opacity="0.5"/>
<path d="M315 150C323.284 150 330 156.716 330 165C330 173.284 323.284 180 315 180H225C216.715 180 210 173.284 210 165C210 156.716 216.715 150 225 150H315Z" fill="#B06AB3" fill-opacity="0.5"/>
<path d="M315 60C323.284 60 330 66.7157 330 75C330 83.2843 323.284 90 315 90H225C216.715 90 210 83.2843 210 75C210 66.7157 216.715 60 225 60H315Z" fill="#B06AB3" fill-opacity="0.5"/>
<path d="M48.6715 379.863L27.8509 343.089H18.9278V379.863H0V285.494H35.422C42.7228 285.494 48.9419 286.801 54.0794 289.415C59.217 291.939 63.0476 295.409 65.5713 299.825C68.1851 304.152 69.4921 309.019 69.4921 314.427C69.4921 320.646 67.6894 326.279 64.0841 331.327C60.4788 336.284 55.116 339.709 47.9955 341.602L70.5737 379.863H48.6715ZM18.9278 328.893H34.746C39.8836 328.893 43.7142 327.676 46.2379 325.243C48.7616 322.719 50.0235 319.249 50.0235 314.832C50.0235 310.506 48.7616 307.171 46.2379 304.828C43.7142 302.394 39.8836 301.177 34.746 301.177H18.9278V328.893Z" fill="black"/>
<path d="M167.325 379.863H148.397L105.539 315.103V379.863H86.6116V285.359H105.539L148.397 350.254V285.359H167.325V379.863Z" fill="black"/>
<path d="M219.019 285.494C228.933 285.494 237.631 287.432 245.112 291.308C252.683 295.183 258.496 300.727 262.552 307.937C266.699 315.058 268.772 323.35 268.772 332.814C268.772 342.278 266.699 350.57 262.552 357.69C258.496 364.721 252.683 370.174 245.112 374.049C237.631 377.925 228.933 379.863 219.019 379.863H186.03V285.494H219.019ZM218.343 363.774C228.257 363.774 235.918 361.07 241.326 355.662C246.734 350.254 249.438 342.638 249.438 332.814C249.438 322.989 246.734 315.328 241.326 309.83C235.918 304.242 228.257 301.448 218.343 301.448H204.958V363.774H218.343Z" fill="black"/>
<path d="M312.278 303.746C317.866 303.746 322.778 304.873 327.015 307.126C331.251 309.289 334.586 312.128 337.019 315.644V304.963H356.082V380.404C356.082 387.344 354.685 393.518 351.891 398.926C349.097 404.424 344.906 408.75 339.318 411.905C333.73 415.15 326.97 416.772 319.038 416.772C308.402 416.772 299.66 414.293 292.809 409.336C286.05 404.379 282.219 397.619 281.318 389.056H300.11C301.102 392.481 303.22 395.185 306.465 397.168C309.799 399.241 313.81 400.278 318.497 400.278C323.995 400.278 328.457 398.61 331.882 395.276C335.307 392.031 337.019 387.073 337.019 380.404V368.777C334.586 372.292 331.206 375.221 326.879 377.565C322.643 379.908 317.776 381.08 312.278 381.08C305.969 381.08 300.2 379.457 294.973 376.213C289.745 372.968 285.599 368.416 282.534 362.557C279.56 356.609 278.073 349.804 278.073 342.142C278.073 334.571 279.56 327.856 282.534 321.998C285.599 316.139 289.7 311.633 294.837 308.478C300.065 305.323 305.879 303.746 312.278 303.746ZM337.019 342.413C337.019 337.816 336.118 333.895 334.315 330.651C332.513 327.316 330.079 324.792 327.015 323.079C323.95 321.277 320.66 320.376 317.145 320.376C313.63 320.376 310.385 321.232 307.411 322.944C304.437 324.657 302.003 327.18 300.11 330.515C298.308 333.76 297.406 337.636 297.406 342.142C297.406 346.649 298.308 350.615 300.11 354.04C302.003 357.375 304.437 359.944 307.411 361.746C310.475 363.549 313.72 364.45 317.145 364.45C320.66 364.45 323.95 363.594 327.015 361.881C330.079 360.079 332.513 357.555 334.315 354.31C336.118 350.975 337.019 347.01 337.019 342.413Z" fill="black"/>
<path d="M393.496 316.59C395.93 312.624 399.085 309.515 402.96 307.261C406.926 305.008 411.433 303.881 416.48 303.881V323.755H411.478C405.529 323.755 401.023 325.153 397.958 327.947C394.984 330.741 393.496 335.608 393.496 342.548V379.863H374.569V304.963H393.496V316.59Z" fill="black"/>
<path d="M438.828 296.04C435.493 296.04 432.699 295.003 430.446 292.93C428.283 290.767 427.201 288.108 427.201 284.953C427.201 281.799 428.283 279.185 430.446 277.112C432.699 274.949 435.493 273.867 438.828 273.867C442.163 273.867 444.912 274.949 447.075 277.112C449.329 279.185 450.455 281.799 450.455 284.953C450.455 288.108 449.329 290.767 447.075 292.93C444.912 295.003 442.163 296.04 438.828 296.04ZM448.157 304.963V379.863H429.229V304.963H448.157Z" fill="black"/>
<path d="M461.99 342.142C461.99 334.571 463.478 327.856 466.452 321.998C469.516 316.139 473.663 311.633 478.89 308.478C484.118 305.323 489.931 303.746 496.331 303.746C501.198 303.746 505.84 304.828 510.256 306.991C514.673 309.064 518.188 311.858 520.802 315.373V279.816H540V379.863H520.802V368.777C518.458 372.472 515.168 375.446 510.932 377.7C506.696 379.953 501.784 381.08 496.196 381.08C489.886 381.08 484.118 379.457 478.89 376.213C473.663 372.968 469.516 368.416 466.452 362.557C463.478 356.609 461.99 349.804 461.99 342.142ZM520.937 342.413C520.937 337.816 520.036 333.895 518.233 330.651C516.43 327.316 513.997 324.792 510.932 323.079C507.868 321.277 504.578 320.376 501.063 320.376C497.548 320.376 494.303 321.232 491.329 322.944C488.354 324.657 485.921 327.18 484.028 330.515C482.225 333.76 481.324 337.636 481.324 342.142C481.324 346.649 482.225 350.615 484.028 354.04C485.921 357.375 488.354 359.944 491.329 361.746C494.393 363.549 497.638 364.45 501.063 364.45C504.578 364.45 507.868 363.594 510.932 361.881C513.997 360.079 516.43 357.555 518.233 354.31C520.036 350.975 520.937 347.01 520.937 342.413Z" fill="black"/>
</svg>
