<svg width="28" height="28" viewBox="0 0 28 28" fill="none" xmlns="http://www.w3.org/2000/svg">
<path d="M3.08848 21.1253L4.81952 24.5051C5.48575 25.8059 6.80838 26.6398 8.26932 26.6802L17.9129 26.9465C19.1363 26.9803 20.3078 26.4522 21.0926 25.5131L24.6405 21.2678C25.319 20.4559 25.6482 19.4082 25.556 18.3541L25.1326 13.5159C25.0472 12.5394 24.6062 11.6283 23.8934 10.9556L20.1387 7.41184C19.9467 7.23062 19.7731 7.03084 19.6205 6.81541L17.3484 3.60879C16.2676 2.08332 14.2742 1.51004 12.5481 2.22825L7.77555 4.214C6.13146 4.89807 5.13756 6.5866 5.33745 8.35607L5.73215 11.8502C5.84039 12.8084 5.59884 13.7734 5.05195 14.5677L3.35418 17.0333C2.52005 18.2447 2.41801 19.8162 3.08848 21.1253Z" fill="#FFE799"/>
<path d="M15.5704 5.45422L20.3854 12.4579C20.4486 12.5498 20.4244 12.6757 20.3315 12.7376L20.042 12.9306C20.2678 13.1816 20.4937 13.4449 20.6099 13.7572C20.7294 14.0786 20.7328 14.4518 20.5003 14.9167C20.0004 15.0028 19.2612 15.0554 18.9877 14.9685C18.4297 14.7912 18.2831 14.3574 18.3026 14.0902L17.9144 14.349C17.8234 14.4097 17.7006 14.386 17.6386 14.2959L12.8236 7.29226C12.7604 7.20032 12.7846 7.07444 12.8775 7.01255L13.2312 6.77669L11.9171 5.00229C11.849 4.91041 11.8717 4.78027 11.9668 4.71685L13.0035 4.02576C13.0942 3.96525 13.2168 3.98863 13.2789 4.07833L14.542 5.90286L15.2946 5.40111C15.3856 5.34046 15.5084 5.36412 15.5704 5.45422Z" fill="white"/>
<path d="M13.2312 6.77669L12.8775 7.01255C12.7846 7.07444 12.7604 7.20032 12.8236 7.29226L17.6386 14.2959C17.7006 14.386 17.8234 14.4097 17.9144 14.349L18.3026 14.0902M13.2312 6.77669L11.9171 5.00229C11.849 4.91041 11.8717 4.78027 11.9668 4.71685L13.0035 4.02576C13.0942 3.96525 13.2168 3.98863 13.2789 4.07833L14.542 5.90286M13.2312 6.77669L14.542 5.90286M14.542 5.90286L15.2946 5.40111C15.3856 5.34046 15.5084 5.36412 15.5704 5.45422L20.3854 12.4579C20.4486 12.5498 20.4244 12.6757 20.3315 12.7376L20.042 12.9306M18.3026 14.0902L20.042 12.9306M18.3026 14.0902C18.2831 14.3574 18.4297 14.7912 18.9877 14.9685M20.5003 14.9167C20.0004 15.0028 19.2612 15.0554 18.9877 14.9685M20.5003 14.9167L20.9587 15.8334M20.5003 14.9167C20.7328 14.4518 20.7294 14.0786 20.6099 13.7572M20.042 12.9306C20.2678 13.1816 20.4937 13.4449 20.6099 13.7572M18.9877 14.9685V15.8334M20.6099 13.7572H21.5557" stroke="#141B33" stroke-width="0.9" stroke-linecap="round"/>
<path d="M12.2499 21.3333C4.91689 17.2083 8.12516 10.3333 11.792 8.5L14.0821 9.64506C14.2453 9.72663 14.2217 9.97056 14.0493 10.0302C8.22343 12.0451 10.0437 18.1727 13.167 19.9245C13.6359 19.4362 14.255 19.0417 15.0003 19.0417C15.7456 19.0417 16.2858 19.4362 16.6569 19.9245C17.4797 19.6302 18.8503 18.95 17.7503 18.5833H17.492C17.3815 18.5833 17.292 18.4938 17.292 18.3833V17.8667C17.292 17.7562 17.3815 17.6667 17.492 17.6667H22.592C22.7024 17.6667 22.792 17.7562 22.792 17.8667V18.3833C22.792 18.4938 22.7024 18.5833 22.592 18.5833H20.5003C20.1948 19.3472 19.1253 20.9667 17.292 21.3333H19.0252C19.0805 21.3333 19.1252 21.3781 19.1252 21.4333L19.1253 22.7083L20.2603 24.2217C20.3592 24.3535 20.2651 24.5417 20.1003 24.5417H6.69199C6.52718 24.5417 6.43311 24.3535 6.53199 24.2217L7.66699 22.7083V21.4333C7.66699 21.3781 7.71176 21.3333 7.76699 21.3333H12.2499Z" fill="white"/>
<path d="M12.2499 21.3333C4.91689 17.2083 8.12516 10.3333 11.792 8.5L14.0821 9.64506C14.2453 9.72663 14.2217 9.97056 14.0493 10.0302C8.22343 12.0451 10.0437 18.1727 13.167 19.9245M12.2499 21.3333H7.76699C7.71176 21.3333 7.66699 21.3781 7.66699 21.4333V22.7083M12.2499 21.3333H17.292M12.2499 21.3333C12.4002 20.9576 12.7132 20.3972 13.167 19.9245M19.1253 22.7083L19.1252 21.4333C19.1252 21.3781 19.0805 21.3333 19.0252 21.3333H17.292M19.1253 22.7083H7.66699M19.1253 22.7083L20.2603 24.2217C20.3592 24.3535 20.2651 24.5417 20.1003 24.5417H6.69199C6.52718 24.5417 6.43311 24.3535 6.53199 24.2217L7.66699 22.7083M17.292 21.3333C17.2169 20.9576 17.0161 20.3972 16.6569 19.9245M17.292 21.3333C19.1253 20.9667 20.1948 19.3472 20.5003 18.5833H22.592C22.7024 18.5833 22.792 18.4938 22.792 18.3833V17.8667C22.792 17.7562 22.7024 17.6667 22.592 17.6667H17.492C17.3815 17.6667 17.292 17.7562 17.292 17.8667V18.3833C17.292 18.4938 17.3815 18.5833 17.492 18.5833H17.7503C18.8503 18.95 17.4797 19.6302 16.6569 19.9245M13.167 19.9245C13.6359 19.4362 14.255 19.0417 15.0003 19.0417C15.7456 19.0417 16.2858 19.4362 16.6569 19.9245" stroke="#141B33" stroke-width="0.9"/>
<path d="M13.1663 6.66675C14.1789 6.66675 14.9997 7.48756 14.9997 8.50008C14.9997 9.5126 14.1789 10.3334 13.1663 10.3334C12.1538 10.3334 11.333 9.5126 11.333 8.50008C11.333 7.48756 12.1538 6.66675 13.1663 6.66675Z" fill="white" stroke="#141B33" stroke-width="0.9"/>
</svg>
